HIERARCHY
ROOT Hips
{
  OFFSET -95.9607 72.5216 1173.08
  CHANNELS 6 Xposition Yposition Zposition Zrotation Xrotation Yrotation
  JOINT Spine
  {
    OFFSET 0 8 0
    CHANNELS 6 Xposition Yposition Zposition Zrotation Xrotation Yrotation
    JOINT Spine1
    {
      OFFSET 0 8 0
      CHANNELS 6 Xposition Yposition Zposition Zrotation Xrotation Yrotation
      JOINT Spine2
      {
        OFFSET 0 8 0
        CHANNELS 6 Xposition Yposition Zposition Zrotation Xrotation Yrotation
        JOINT Spine3
        {
          OFFSET 0 8 0
          CHANNELS 6 Xposition Yposition Zposition Zrotation Xrotation Yrotation
          JOINT Neck
          {
            OFFSET 0 17 0
            CHANNELS 6 Xposition Yposition Zposition Zrotation Xrotation Yrotation
            JOINT Head
            {
              OFFSET 0 10.8 0
              CHANNELS 6 Xposition Yposition Zposition Zrotation Xrotation Yrotation
              End Site
              {
                OFFSET -6.95002 -11.5608 -8.75082
              }
            }
          }
          JOINT LeftShoulder
          {
            OFFSET 5 17 0
            CHANNELS 6 Xposition Yposition Zposition Zrotation Xrotation Yrotation
            JOINT LeftShoulder2
            {
              OFFSET 6.45 0 0
              CHANNELS 6 Xposition Yposition Zposition Zrotation Xrotation Yrotation
              JOINT LeftArm
              {
                OFFSET 6.45 0 0
                CHANNELS 6 Xposition Yposition Zposition Zrotation Xrotation Yrotation
                JOINT LeftForeArm
                {
                  OFFSET 0 -32.4 -2
                  CHANNELS 6 Xposition Yposition Zposition Zrotation Xrotation Yrotation
                  JOINT LeftHand
                  {
                    OFFSET 0 -25.65 2
                    CHANNELS 6 Xposition Yposition Zposition Zrotation Xrotation Yrotation
                    JOINT LeftHandThumb1
                    {
                      OFFSET -0.5 -1.5 2.65
                      CHANNELS 6 Xposition Yposition Zposition Zrotation Xrotation Yrotation
                      JOINT LeftHandThumb2
                      {
                        OFFSET 0 -3.8 3.7
                        CHANNELS 6 Xposition Yposition Zposition Zrotation Xrotation Yrotation
                        JOINT LeftHandThumb3
                        {
                          OFFSET 0 -3 2.7
                          CHANNELS 6 Xposition Yposition Zposition Zrotation Xrotation Yrotation
                          End Site
                          {
                            OFFSET 0 -2.3 1.8
                          }
                        }
                      }
                    }
                    JOINT LeftHandIndex
                    {
                      OFFSET 0 -1.9 1.6
                      CHANNELS 6 Xposition Yposition Zposition Zrotation Xrotation Yrotation
                      JOINT LeftHandIndex1
                      {
                        OFFSET 0 -8.3 1.9
                        CHANNELS 6 Xposition Yposition Zposition Zrotation Xrotation Yrotation
                        JOINT LeftHandIndex2
                        {
                          OFFSET 0 -4.5 0
                          CHANNELS 6 Xposition Yposition Zposition Zrotation Xrotation Yrotation
                          JOINT LeftHandIndex3
                          {
                            OFFSET 0 -3.4 0
                            CHANNELS 6 Xposition Yposition Zposition Zrotation Xrotation Yrotation
                            End Site
                            {
                              OFFSET 0 -2.6 0
                            }
                          }
                        }
                      }
                    }
                    JOINT LeftHandMiddle
                    {
                      OFFSET -0.25 -2.2 0.4
                      CHANNELS 6 Xposition Yposition Zposition Zrotation Xrotation Yrotation
                      JOINT LeftHandMiddle1
                      {
                        OFFSET 0 -8.3 1
                        CHANNELS 6 Xposition Yposition Zposition Zrotation Xrotation Yrotation
                        JOINT LeftHandMiddle2
                        {
                          OFFSET 0 -4.65 0
                          CHANNELS 6 Xposition Yposition Zposition Zrotation Xrotation Yrotation
                          JOINT LeftHandMiddle3
                          {
                            OFFSET 0 -3.3 0
                            CHANNELS 6 Xposition Yposition Zposition Zrotation Xrotation Yrotation
                            End Site
                            {
                              OFFSET 0 -2.7 0
                            }
                          }
                        }
                      }
                    }
                    JOINT LeftHandRing
                    {
                      OFFSET -0.5 -2.15 -0.8
                      CHANNELS 6 Xposition Yposition Zposition Zrotation Xrotation Yrotation
                      JOINT LeftHandRing1
                      {
                        OFFSET 0 -7.75 -0.2
                        CHANNELS 6 Xposition Yposition Zposition Zrotation Xrotation Yrotation
                        JOINT LeftHandRing2
                        {
                          OFFSET 0 -3.8 0
                          CHANNELS 6 Xposition Yposition Zposition Zrotation Xrotation Yrotation
                          JOINT LeftHandRing3
                          {
                            OFFSET 0 -3.4 0
                            CHANNELS 6 Xposition Yposition Zposition Zrotation Xrotation Yrotation
                            End Site
                            {
                              OFFSET 0 -2.6 0
                            }
                          }
                        }
                      }
                    }
                    JOINT LeftHandPinky
                    {
                      OFFSET -0.75 -1.75 -1.85
                      CHANNELS 6 Xposition Yposition Zposition Zrotation Xrotation Yrotation
                      JOINT LeftHandPinky1
                      {
                        OFFSET 0 -7.15 -1
                        CHANNELS 6 Xposition Yposition Zposition Zrotation Xrotation Yrotation
                        JOINT LeftHandPinky2
                        {
                          OFFSET 0 -3 0
                          CHANNELS 6 Xposition Yposition Zposition Zrotation Xrotation Yrotation
                          JOINT LeftHandPinky3
                          {
                            OFFSET 0 -2.35 0
                            CHANNELS 6 Xposition Yposition Zposition Zrotation Xrotation Yrotation
                            End Site
                            {
                              OFFSET 0 -2.1 0
                            }
                          }
                        }
                      }
                    }
                  }
                }
              }
            }
          }
          JOINT RightShoulder
          {
            OFFSET -5 17 0
            CHANNELS 6 Xposition Yposition Zposition Zrotation Xrotation Yrotation
            JOINT RightShoulder2
            {
              OFFSET -6.45 0 0
              CHANNELS 6 Xposition Yposition Zposition Zrotation Xrotation Yrotation
              JOINT RightArm
              {
                OFFSET -6.45 0 0
                CHANNELS 6 Xposition Yposition Zposition Zrotation Xrotation Yrotation
                JOINT RightForeArm
                {
                  OFFSET 0 -32.4 -2
                  CHANNELS 6 Xposition Yposition Zposition Zrotation Xrotation Yrotation
                  JOINT RightHand
                  {
                    OFFSET 0 -25.65 2
                    CHANNELS 6 Xposition Yposition Zposition Zrotation Xrotation Yrotation
                    JOINT RightHandThumb1
                    {
                      OFFSET 0.5 -1.5 2.65
                      CHANNELS 6 Xposition Yposition Zposition Zrotation Xrotation Yrotation
                      JOINT RightHandThumb2
                      {
                        OFFSET 0 -3.8 3.7
                        CHANNELS 6 Xposition Yposition Zposition Zrotation Xrotation Yrotation
                        JOINT RightHandThumb3
                        {
                          OFFSET 0 -3 2.7
                          CHANNELS 6 Xposition Yposition Zposition Zrotation Xrotation Yrotation
                          End Site
                          {
                            OFFSET 0 -2.3 1.8
                          }
                        }
                      }
                    }
                    JOINT RightHandIndex
                    {
                      OFFSET 0 -1.9 1.6
                      CHANNELS 6 Xposition Yposition Zposition Zrotation Xrotation Yrotation
                      JOINT RightHandIndex1
                      {
                        OFFSET 0 -8.3 1.9
                        CHANNELS 6 Xposition Yposition Zposition Zrotation Xrotation Yrotation
                        JOINT RightHandIndex2
                        {
                          OFFSET 0 -4.5 0
                          CHANNELS 6 Xposition Yposition Zposition Zrotation Xrotation Yrotation
                          JOINT RightHandIndex3
                          {
                            OFFSET 0 -3.4 0
                            CHANNELS 6 Xposition Yposition Zposition Zrotation Xrotation Yrotation
                            End Site
                            {
                              OFFSET 0 -2.6 0
                            }
                          }
                        }
                      }
                    }
                    JOINT RightHandMiddle
                    {
                      OFFSET 0.25 -2.2 0.4
                      CHANNELS 6 Xposition Yposition Zposition Zrotation Xrotation Yrotation
                      JOINT RightHandMiddle1
                      {
                        OFFSET 0 -8.3 1
                        CHANNELS 6 Xposition Yposition Zposition Zrotation Xrotation Yrotation
                        JOINT RightHandMiddle2
                        {
                          OFFSET 0 -4.65 0
                          CHANNELS 6 Xposition Yposition Zposition Zrotation Xrotation Yrotation
                          JOINT RightHandMiddle3
                          {
                            OFFSET 0 -3.3 0
                            CHANNELS 6 Xposition Yposition Zposition Zrotation Xrotation Yrotation
                            End Site
                            {
                              OFFSET 0 -2.7 0
                            }
                          }
                        }
                      }
                    }
                    JOINT RightHandRing
                    {
                      OFFSET 0.5 -2.15 -0.8
                      CHANNELS 6 Xposition Yposition Zposition Zrotation Xrotation Yrotation
                      JOINT RightHandRing1
                      {
                        OFFSET 0 -7.75 -0.2
                        CHANNELS 6 Xposition Yposition Zposition Zrotation Xrotation Yrotation
                        JOINT RightHandRing2
                        {
                          OFFSET 0 -3.8 0
                          CHANNELS 6 Xposition Yposition Zposition Zrotation Xrotation Yrotation
                          JOINT RightHandRing3
                          {
                            OFFSET 0 -3.4 0
                            CHANNELS 6 Xposition Yposition Zposition Zrotation Xrotation Yrotation
                            End Site
                            {
                              OFFSET 0 -2.6 0
                            }
                          }
                        }
                      }
                    }
                    JOINT RightHandPinky
                    {
                      OFFSET 0.75 -1.75 -1.85
                      CHANNELS 6 Xposition Yposition Zposition Zrotation Xrotation Yrotation
                      JOINT RightHandPinky1
                      {
                        OFFSET 0 -7.15 -1
                        CHANNELS 6 Xposition Yposition Zposition Zrotation Xrotation Yrotation
                        JOINT RightHandPinky2
                        {
                          OFFSET 0 -3 0
                          CHANNELS 6 Xposition Yposition Zposition Zrotation Xrotation Yrotation
                          JOINT RightHandPinky3
                          {
                            OFFSET 0 -2.35 0
                            CHANNELS 6 Xposition Yposition Zposition Zrotation Xrotation Yrotation
                            End Site
                            {
                              OFFSET 0 -2.1 0
                            }
                          }
                        }
                      }
                    }
                  }
                }
              }
            }
          }
        }
      }
    }
  }
  JOINT LeftUpLeg
  {
    OFFSET 8 0 0
    CHANNELS 6 Xposition Yposition Zposition Zrotation Xrotation Yrotation
    JOINT LeftLeg
    {
      OFFSET 0 -45 -1
      CHANNELS 6 Xposition Yposition Zposition Zrotation Xrotation Yrotation
      JOINT LeftFoot
      {
        OFFSET 0 -41 -2
        CHANNELS 6 Xposition Yposition Zposition Zrotation Xrotation Yrotation
        JOINT LeftToeBase
        {
          OFFSET 0 -7.5 12.5
          CHANNELS 6 Xposition Yposition Zposition Zrotation Xrotation Yrotation
          JOINT LeftFootToe
          {
            OFFSET 0 0 4
            CHANNELS 6 Xposition Yposition Zposition Zrotation Xrotation Yrotation
            End Site
            {
              OFFSET 0 0 0
            }
          }
        }
      }
    }
  }
  JOINT RightUpLeg
  {
    OFFSET -8 0 0
    CHANNELS 6 Xposition Yposition Zposition Zrotation Xrotation Yrotation
    JOINT RightLeg
    {
      OFFSET 0 -45 -1
      CHANNELS 6 Xposition Yposition Zposition Zrotation Xrotation Yrotation
      JOINT RightFoot
      {
        OFFSET 0 -41 -2
        CHANNELS 6 Xposition Yposition Zposition Zrotation Xrotation Yrotation
        JOINT RightToeBase
        {
          OFFSET 0 -7.5 12.5
          CHANNELS 6 Xposition Yposition Zposition Zrotation Xrotation Yrotation
          JOINT RightFootToe
          {
            OFFSET 0 0 4
            CHANNELS 6 Xposition Yposition Zposition Zrotation Xrotation Yrotation
            End Site
            {
              OFFSET 0 0 0
            }
          }
        }
      }
    }
  }
}
MOTION
Frames:	3
Frame Time:	0.0111111
-95.9607 72.5216 1173.08 -28.2729 2.96645 -157.48 1.13687e-13 8 2.27374e-13 6.69597 10.121 7.62989 0 8 1.13687e-13 6.45989 5.29728 11.071 0 8 0 3.37094 2.50381 5.62547 1.13687e-13 8 1.13687e-13 3.34624 2.48262 5.5835 1.13687e-13 17 0 9.97311 20.9911 -13.6854 1.13687e-13 10.8 0 173.608 40.2141 152.531 5 17 0 -3.85733 2.69503 -56.196 6.45 0 0 -1.03951 -1.1511 0.379901 6.45 -1.13687e-13 -2.27374e-13 40.837 7.64329 9.60735 -2.84217e-14 -32.4 -2 -36.6747 -71.4903 -54.2709 5.68434e-14 -25.65 2 -15.3714 -38.9733 -55.7222 -0.5 -1.5 2.65 -23.5694 -14.5396 162.936 -1.13687e-13 -3.8 3.7 0.245269 -1.24867 0.316584 1.13687e-13 -3 2.7 -0.00368538 30.8162 0.00578859 -5.68434e-14 -1.9 1.6 -3.18055e-15 -3.18055e-15 7.95139e-15 -5.68434e-14 -8.3 1.9 -9.04111 5.82743 0.459194 -2.27374e-13 -4.5 1.13687e-13 -0.000520496 0.000591276 0.000240844 0 -3.4 0 -1.03392e-06 -2.01619e-05 0.000219153 -0.25 -2.2 0.4 -3.18055e-15 -3.18055e-15 7.95139e-15 -5.68434e-14 -8.3 1 -6.40337 8.399 0.783425 -2.27374e-13 -4.65 5.68434e-14 -0.00255889 -0.00121397 -0.000204468 -1.13687e-13 -3.3 -5.68434e-14 1.22262e-06 -0.00403505 -0.000235184 -0.5 -2.15 -0.8 -3.18055e-15 -3.18055e-15 7.95139e-15 5.68434e-14 -7.75 -0.2 -58.0296 8.18075 7.91596 -2.27374e-13 -3.8 5.68434e-14 -0.000536661 -0.000162571 0.00355444 0 -3.4 5.68434e-14 6.29691e-07 -0.000392583 0.00322623 -0.75 -1.75 -1.85 -3.18055e-15 -3.18055e-15 7.95139e-15 -5.68434e-14 -7.15 -1 -73.7915 10.3115 15.3768 0 -3 -5.68434e-14 3.92724e-07 0.0010748 0.00509768 0 -2.35 5.68434e-14 -2.91327e-06 0.000999877 0.00397941 -5 17 0 -0.554042 -3.89626 -62.5391 -6.45 5.68434e-14 -2.27374e-13 -2.99973 1.51803 -3.62144 -6.45 -1.13687e-13 -4.54747e-13 -57.7436 -52.0793 -25.5014 5.68434e-14 -32.4 -2 144.621 -68.7606 158.149 -5.68434e-14 -25.65 2 -31.4063 -28.5494 -26.8799 0.5 -1.5 2.65 3.42524 -19.5821 12.5952 -2.84217e-14 -3.8 3.7 0.931985 28.2855 -0.306816 0 -3 2.7 0.0883058 33.6555 -0.0799158 -2.13163e-14 -1.9 1.6 1.98785e-16 0 7.95139e-16 7.10543e-15 -8.3 1.9 30.2819 1.82773 -0.793284 -7.10543e-15 -4.5 0 54.9109 0.0024486 0.0107012 5.68434e-14 -3.4 0 38.0162 0.00482803 -0.00644894 0.25 -2.2 0.4 1.98785e-16 0 7.95139e-16 7.10543e-15 -8.3 1 41.997 -1.31245 -1.14049 7.10543e-15 -4.65 -2.27374e-13 90.0002 -0.000145865 0.000158265 -1.42109e-14 -3.3 0 90.0002 -0.000267163 0.00027951 0.5 -2.15 -0.8 1.98785e-16 0 7.95139e-16 0 -7.75 -0.2 71.7317 6.85745 -11.1628 0 -3.8 0 74.8948 0.00767697 0.00209531 5.68434e-14 -3.4 0 58.0359 0.00899374 -0.00787872 0.75 -1.75 -1.85 1.98785e-16 0 7.95139e-16 7.10543e-15 -7.15 -1 83.3121 0.88859 -11.5779 0 -3 0 75.9967 -0.00594158 -0.00644758 -2.84217e-14 -2.35 0 59.591 -0.00126542 0.00199696 8 0 2.27374e-13 -19.7999 -36.7753 175.532 0 -45 -1 16.5879 -58.5289 115.753 -1.13687e-13 -41 -2 9.78553 -2.54739 75.5454 0 -7.5 12.5 -1.22389e-11 -0.000218833 -8.55766e-10 0 6.93889e-18 4 12.3408 12.3697 36.221 -8 1.42109e-14 -2.27374e-13 -31.0735 -46.5451 171.595 0 -45 -1 98.3327 -79.5475 -154.699 0 -41 -2 18.6211 14.3601 41.2741 0 -7.5 12.5 -0.0028563 -1.91337 0.00372875 -2.84217e-14 0 4 -18.4886 -11.8168 57.6138 
-95.95 72.5466 1172.96 -28.3161 2.95552 -157.519 -1.13687e-13 8 2.27374e-13 6.70815 10.0725 7.59738 0 8 0 6.46214 5.31158 11.1222 0 8 0 3.36925 2.50926 5.65153 0 8 2.27374e-13 3.34451 2.48892 5.609 1.13687e-13 17 -1.13687e-13 9.97594 20.9891 -13.7105 0 10.8 -1.13687e-13 173.539 40.1525 152.558 5 17 -1.13687e-13 -3.89144 2.78313 -56.1271 6.45 5.68434e-14 0 -1.04915 -1.12517 0.398464 6.45 -5.68434e-14 -2.27374e-13 40.8056 7.76204 10.278 0 -32.4 -2 -38.8846 -71.3126 -55.5336 0 -25.65 2 -16.3641 -37.2641 -55.8158 -0.5 -1.5 2.65 -22.1319 -14.4438 162.393 0 -3.8 3.7 0.245269 -1.24867 0.316584 1.13687e-13 -3 2.7 0.0153529 30.4052 0.0216406 -1.13687e-13 -1.9 1.6 -5.29669e-31 3.18055e-15 9.54166e-15 0 -8.3 1.9 -7.03955 5.65994 0.322254 1.13687e-13 -4.5 -5.68434e-14 -0.000520496 0.000591276 0.000240844 1.13687e-13 -3.4 0 -1.03392e-06 -2.01619e-05 0.000219153 -0.25 -2.2 0.4 -5.29669e-31 3.18055e-15 9.54166e-15 -5.68434e-14 -8.3 1 -6.76256 7.7025 0.877328 0 -4.65 -5.68434e-14 -0.00255889 -0.00121397 -0.000204468 -1.13687e-13 -3.3 -5.68434e-14 1.22262e-06 -0.00403505 -0.000235184 -0.5 -2.15 -0.8 -5.29669e-31 3.18055e-15 9.54166e-15 1.13687e-13 -7.75 -0.2 -55.3354 9.13943 7.97066 2.27374e-13 -3.8 0 -0.000536661 -0.000162571 0.00355444 0 -3.4 -5.68434e-14 6.29691e-07 -0.000392583 0.00322623 -0.75 -1.75 -1.85 -5.29669e-31 3.18055e-15 9.54166e-15 0 -7.15 -1 -71.0036 11.6162 15.2526 2.27374e-13 -3 -1.13687e-13 3.92724e-07 0.0010748 0.00509768 -2.27374e-13 -2.35 2.84217e-14 -2.91327e-06 0.000999877 0.00397941 -5 17 0 -0.547098 -3.80935 -62.4356 -6.45 5.68434e-14 0 -3.01291 1.51798 -3.6529 -6.45 -1.7053e-13 -2.27374e-13 -57.3035 -52.3501 -24.6895 5.68434e-14 -32.4 -2 145.21 -69.2373 159.106 0 -25.65 2 -31.4208 -28.581 -26.6813 0.5 -1.5 2.65 3.3937 -19.7208 12.1786 0 -3.8 3.7 0.923124 28.5174 -0.307488 0 -3 2.7 0.0879859 33.4642 -0.079739 -1.42109e-14 -1.9 1.6 -0 -3.18055e-15 -0 0 -8.3 1.9 30.2957 1.89325 -0.811705 -7.10543e-15 -4.5 0 54.8467 0.0024486 0.0107012 2.84217e-14 -3.4 0 37.968 0.00482803 -0.00644894 0.25 -2.2 0.4 -0 -3.18055e-15 -0 7.10543e-15 -8.3 1 41.9785 -1.28014 -1.15178 0 -4.65 0 90.0002 -0.000145865 0.000158265 0 -3.3 0 90.0002 -0.000267163 0.00027951 0.5 -2.15 -0.8 -0 -3.18055e-15 -0 -7.10543e-15 -7.75 -0.2 71.7822 6.86359 -11.1776 0 -3.8 2.27374e-13 74.8425 0.00767697 0.00209531 8.52651e-14 -3.4 0 57.9632 0.00899374 -0.00787872 0.75 -1.75 -1.85 -0 -3.18055e-15 -0 1.42109e-14 -7.15 -1 83.3359 0.882494 -11.5779 -5.68434e-14 -3 -2.27374e-13 75.9443 -0.00594158 -0.00644758 0 -2.35 -2.27374e-13 59.5154 -0.00126542 0.00199696 8 0 4.54747e-13 -19.8012 -36.705 175.523 5.68434e-14 -45 -1 16.6906 -58.5482 115.875 0 -41 -2 9.89565 -2.57985 75.6781 -5.68434e-14 -7.5 12.5 -1.22389e-11 -0.000218833 -8.55766e-10 -1.13687e-13 1.38778e-17 4 12.3854 12.4331 36.2711 -8 0 -2.27374e-13 -31.0889 -46.5062 171.617 0 -45 -1 98.8388 -79.5256 -154.182 -1.13687e-13 -41 -2 18.7629 14.3272 41.2382 -5.68434e-14 -7.5 12.5 -0.00289105 -1.37951 0.00372776 0 -5.68434e-14 4 -18.5361 -12.317 57.4406 
-95.9508 72.5799 1172.85 -28.3598 2.95231 -157.572 0 8 -2.27374e-13 6.72513 10.0252 7.57126 0 8 1.13687e-13 6.46571 5.3274 11.1784 1.13687e-13 8 -1.13687e-13 3.37208 2.51641 5.68015 0 8 -1.13687e-13 3.34712 2.49585 5.63705 1.13687e-13 17 0 9.96414 20.9866 -13.7404 1.13687e-13 10.8 5.68434e-14 173.437 40.0972 152.574 5 17 0 -3.92703 2.88119 -56.0455 6.45 0 0 -1.04921 -1.1141 0.388883 6.45 -5.68434e-14 -2.27374e-13 40.7895 7.89156 10.9576 1.42109e-14 -32.4 -2 -40.8901 -71.0653 -56.5437 0 -25.65 2 -17.4043 -35.4723 -55.8366 -0.5 -1.5 2.65 -20.6173 -14.5088 161.898 0 -3.8 3.7 0.245269 -1.24867 0.316584 2.27374e-13 -3 2.7 0.0456323 29.3413 0.039483 -1.13687e-13 -1.9 1.6 -3.18055e-15 3.18055e-15 6.36111e-15 0 -8.3 1.9 -5.20962 5.47249 0.214985 0 -4.5 5.68434e-14 -0.000520496 0.000591276 0.000240844 0 -3.4 1.13687e-13 -1.03392e-06 -2.01619e-05 0.000219153 -0.25 -2.2 0.4 -3.18055e-15 3.18055e-15 6.36111e-15 -5.68434e-14 -8.3 1 -7.21008 7.08688 0.95693 -1.13687e-13 -4.65 1.13687e-13 -0.00255889 -0.00121397 -0.000204468 -1.13687e-13 -3.3 -1.13687e-13 1.22262e-06 -0.00403505 -0.000235184 -0.5 -2.15 -0.8 -3.18055e-15 3.18055e-15 6.36111e-15 0 -7.75 -0.2 -52.3846 10.159 7.98253 -2.27374e-13 -3.8 2.84217e-14 -0.000536661 -0.000162571 0.00355444 -2.27374e-13 -3.4 2.84217e-14 6.29691e-07 -0.000392583 0.00322623 -0.75 -1.75 -1.85 -3.18055e-15 3.18055e-15 6.36111e-15 -1.13687e-13 -7.15 -1 -67.8721 13.0084 15.0554 -2.27374e-13 -3 -8.52651e-14 3.92724e-07 0.0010748 0.00509768 0 -2.35 0 -2.91327e-06 0.000999877 0.00397941 -5 17 -1.13687e-13 -0.546033 -3.73143 -62.3451 -6.45 5.68434e-14 2.27374e-13 -3.02667 1.51793 -3.68278 -6.45 -1.7053e-13 -2.27374e-13 -56.9759 -52.5518 -24.1093 8.52651e-14 -32.4 -2 145.602 -69.6079 159.766 0 -25.65 2 -31.4706 -28.5916 -26.5206 0.5 -1.5 2.65 3.38585 -19.8189 11.9592 0 -3.8 3.7 0.91784 28.6556 -0.307893 0 -3 2.7 0.087708 33.2973 -0.0795861 -2.13163e-14 -1.9 1.6 -9.93923e-17 3.18055e-15 7.95139e-16 -7.10543e-15 -8.3 1.9 30.3219 1.94949 -0.827868 -7.10543e-15 -4.5 2.27374e-13 54.7821 0.0024486 0.0107012 7.10543e-14 -3.4 -2.27374e-13 37.9197 0.00482803 -0.00644894 0.25 -2.2 0.4 -9.93923e-17 3.18055e-15 7.95139e-16 7.10543e-15 -8.3 1 41.9634 -1.2578 -1.1593 1.42109e-14 -4.65 2.27374e-13 90.0002 -0.000145865 0.000158265 0 -3.3 0 90.0002 -0.000267163 0.00027951 0.5 -2.15 -0.8 -9.93923e-17 3.18055e-15 7.95139e-16 -1.42109e-14 -7.75 -0.2 71.8178 6.8679 -11.1878 0 -3.8 2.27374e-13 74.8131 0.00767697 0.00209531 2.84217e-14 -3.4 0 57.9226 0.00899374 -0.00787872 0.75 -1.75 -1.85 -9.93923e-17 3.18055e-15 7.95139e-16 2.13163e-14 -7.15 -1 83.354 0.875169 -11.5779 -5.68434e-14 -3 2.27374e-13 75.8983 -0.00594158 -0.00644758 0 -2.35 0 59.4491 -0.00126542 0.00199696 8 -1.42109e-14 2.27374e-13 -19.8163 -36.6235 175.489 0 -45 -1 16.7655 -58.5403 115.966 0 -41 -2 9.98571 -2.62425 75.8399 0 -7.5 12.5 -1.22389e-11 -0.000218833 -8.55766e-10 -5.68434e-14 2.77556e-17 4 12.4386 12.4803 36.2658 -8 0 -2.27374e-13 -31.0851 -46.4901 171.668 -5.68434e-14 -45 -1 99.3589 -79.502 -153.646 0 -41 -2 18.8805 14.3052 41.2076 -5.68434e-14 -7.5 12.5 -0.0029405 -0.619429 0.00372689 0 5.68434e-14 4 -18.5967 -13.0266 57.1868 
